<?xml version="1.0" standalone="no"?>
<!DOCTYPE svg PUBLIC "-//W3C//DTD SVG 20010904//EN"
 "http://www.w3.org/TR/2001/REC-SVG-20010904/DTD/svg10.dtd">
<svg version="1.0" xmlns="http://www.w3.org/2000/svg"
 width="261.000000pt" height="261.000000pt" viewBox="0 0 261.000000 261.000000"
 preserveAspectRatio="xMidYMid meet">
<metadata>
Created by potrace 1.11, written by Peter Selinger 2001-2013
</metadata>
<g transform="translate(0.000000,261.000000) scale(0.100000,-0.100000)"
fill="#000000" stroke="none">
<path d="M604 2166 c-76 -33 -124 -147 -129 -307 -4 -114 10 -201 44 -267 26
-51 53 -73 99 -79 35 -5 43 -1 75 30 117 118 123 493 9 600 -36 33 -61 39 -98
23z"/>
<path d="M1937 2161 c-74 -48 -116 -162 -118 -321 -5 -257 117 -409 230 -288
47 51 73 144 77 278 4 127 -11 206 -51 275 -36 63 -93 86 -138 56z"/>
<path d="M493 1124 c-24 -24 -25 -30 -19 -92 28 -313 233 -548 551 -633 116
-31 374 -31 490 0 316 84 527 323 552 624 6 72 4 79 -17 102 -50 53 -94 19
-103 -79 -15 -160 -99 -307 -239 -416 -98 -76 -276 -128 -437 -128 -378 0
-642 224 -675 573 -4 40 -33 75 -63 75 -7 0 -26 -12 -40 -26z"/>
</g>
</svg>
